# Blender v3.2.0 OBJ File: 'alphabet.blend'
# www.blender.org
mtllib 121.mtl
v -0.008554 0.157066 0.000000
v -0.098500 0.386688 0.000000
v 0.003146 0.114654 0.000000
v -0.008554 0.157066 0.029156
v -0.042192 0.007896 0.029156
v -0.098500 0.386688 0.029156
v 0.003146 0.114654 0.029156
v 0.108447 0.386688 0.029156
v 0.220696 0.386688 0.029156
v 0.015151 -0.078438 0.029156
v -0.069777 -0.041428 0.029156
v -0.080655 -0.058693 0.029156
v -0.092771 -0.072632 0.029156
v -0.108691 -0.083146 0.029156
v 0.004673 -0.097786 0.029156
v 0.015151 -0.078438 0.000000
v 0.220696 0.386688 0.000000
v 0.004673 -0.097786 0.000000
v -0.006641 -0.114876 0.000000
v -0.025847 -0.135704 0.000000
v -0.006641 -0.114876 0.029156
v -0.150753 -0.164711 0.029156
v -0.025847 -0.135704 0.029156
v -0.040593 -0.147049 0.029156
v -0.057688 -0.156739 0.029156
v -0.040593 -0.147049 0.000000
v -0.057688 -0.156739 0.000000
v -0.077293 -0.164154 0.000000
v -0.104578 -0.168427 0.000000
v -0.077293 -0.164154 0.029156
v -0.104578 -0.168427 0.029156
v -0.129149 -0.168068 0.029156
v -0.129149 -0.168068 0.000000
v -0.150753 -0.164711 0.000000
v -0.149348 -0.083893 0.000000
v -0.126882 -0.084839 0.000000
v -0.149348 -0.083893 0.029156
v -0.126882 -0.084839 0.029156
v -0.108691 -0.083146 0.000000
v -0.092771 -0.072632 0.000000
v -0.080655 -0.058693 0.000000
v -0.069777 -0.041428 0.000000
v -0.042192 0.007896 0.000000
v -0.209651 0.386688 0.000000
v -0.209651 0.386688 0.029156
v 0.108447 0.386688 0.000000
vt 0.000000 0.000000
vt 1.000000 0.000000
vt 1.000000 0.000000
vt 0.000000 0.000000
vt 0.005682 0.000000
vt 0.005682 0.000000
vt 0.988636 0.000000
vt 0.011364 0.000000
vt 0.011364 0.000000
vt 0.017045 0.000000
vt 0.022727 0.000000
vt 0.022727 0.000000
vt 0.017045 0.000000
vt 0.982955 0.000000
vt 0.920455 0.000000
vt 0.926136 0.000000
vt 0.801136 0.000000
vt 0.034091 0.000000
vt 0.806818 0.000000
vt 0.795455 0.000000
vt 0.755682 0.000000
vt 0.056818 0.000000
vt 0.051136 0.000000
vt 0.056818 0.000000
vt 0.051136 0.000000
vt 0.119318 0.000000
vt 0.113636 0.000000
vt 0.113636 0.000000
vt 0.119318 0.000000
vt 0.153409 0.000000
vt 0.147727 0.000000
vt 0.147727 0.000000
vt 0.153409 0.000000
vt 0.568182 0.000000
vt 0.193182 0.000000
vt 0.187500 0.000000
vt 0.193182 0.000000
vt 0.187500 0.000000
vt 0.198864 0.000000
vt 0.198864 0.000000
vt 0.227273 0.000000
vt 0.221591 0.000000
vt 0.221591 0.000000
vt 0.227273 0.000000
vt 0.278409 0.000000
vt 0.272727 0.000000
vt 0.272727 0.000000
vt 0.278409 0.000000
vt 0.392045 0.000000
vt 0.386364 0.000000
vt 0.386364 0.000000
vt 0.392045 0.000000
vt 0.602273 0.000000
vt 0.568182 0.000000
vt 0.602273 0.000000
vt 0.607955 0.000000
vt 0.607955 0.000000
vt 0.744318 0.000000
vt 0.738636 0.000000
vt 0.738636 0.000000
vt 0.744318 0.000000
vt 0.062500 0.000000
vt 0.710227 0.000000
vt 0.801136 0.000000
vt 0.795455 0.000000
vt 0.806818 0.000000
vt 0.926136 0.000000
vt 0.920455 0.000000
vt 0.988636 0.000000
vt 0.982955 0.000000
vt 0.994318 0.000000
vt 0.994318 0.000000
vn 0.9311 0.3647 0.0000
vn 0.9640 0.2659 0.0000
vn -0.0000 0.0000 1.0000
vn -0.9326 0.3610 0.0000
vn 0.9147 -0.4042 0.0000
vn 0.8793 -0.4762 0.0000
vn 0.8338 -0.5520 0.0000
vn 0.7352 -0.6779 0.0000
vn 0.6098 -0.7926 0.0000
vn 0.4931 -0.8700 0.0000
vn 0.3538 -0.9353 0.0000
vn 0.1547 -0.9880 0.0000
vn -0.0146 -0.9999 0.0000
vn -0.1535 -0.9881 0.0000
vn -0.9998 0.0174 0.0000
vn 0.0421 0.9991 0.0000
vn -0.0927 0.9957 0.0000
vn -0.5511 0.8345 0.0000
vn -0.7547 0.6560 0.0000
vn -0.8461 0.5331 0.0000
vn -0.8728 0.4881 0.0000
vn -0.9146 -0.4043 0.0000
vn 0.0000 1.0000 0.0000
usemtl None
s off
f 1/1/1 2/2/1 6/3/1 4/4/1
f 3/5/2 1/1/2 4/4/2 7/6/2
f 5/7/3 7/6/3 4/4/3
f 5/7/3 4/4/3 6/3/3
f 46/8/4 3/5/4 7/6/4 8/9/4
f 7/6/3 9/10/3 8/9/3
f 7/6/3 10/11/3 9/10/3
f 5/7/3 10/11/3 7/6/3
f 16/12/5 17/13/5 9/10/5 10/11/5
f 11/14/3 10/11/3 5/7/3
f 12/15/3 10/11/3 11/16/3
f 13/17/3 10/18/3 12/19/3
f 14/20/3 10/18/3 13/17/3
f 14/21/3 15/22/3 10/23/3
f 18/24/6 16/25/6 10/23/6 15/22/6
f 19/26/7 18/27/7 15/28/7 21/29/7
f 20/30/8 19/31/8 21/32/8 23/33/8
f 22/34/3 23/33/3 21/32/3
f 22/34/3 21/29/3 15/28/3
f 22/34/3 24/35/3 23/36/3
f 26/37/9 20/38/9 23/36/9 24/35/9
f 22/34/3 25/39/3 24/35/3
f 27/40/10 26/37/10 24/35/10 25/39/10
f 28/41/11 27/42/11 25/43/11 30/44/11
f 29/45/12 28/46/12 30/47/12 31/48/12
f 22/49/3 31/48/3 30/47/3
f 22/34/3 30/44/3 25/43/3
f 32/50/3 31/48/3 22/49/3
f 33/51/13 29/45/13 31/48/13 32/50/13
f 34/52/14 33/51/14 32/50/14 22/49/14
f 35/53/15 34/54/15 22/34/15 37/55/15
f 36/56/16 35/53/16 37/55/16 38/57/16
f 22/34/3 38/57/3 37/55/3
f 39/58/17 36/59/17 38/60/17 14/61/17
f 38/60/3 15/22/3 14/61/3
f 22/34/3 15/62/3 38/63/3
f 40/64/18 39/65/18 14/20/18 13/17/18
f 41/66/19 40/64/19 13/17/19 12/19/19
f 42/67/20 41/68/20 12/15/20 11/16/20
f 43/69/21 42/70/21 11/14/21 5/7/21
f 44/71/22 43/69/22 5/7/22 45/72/22
f 2/2/23 44/71/23 45/72/23 6/3/23
f 5/7/3 6/3/3 45/72/3
f 17/13/23 46/8/23 8/9/23 9/10/23
