# Blender v3.2.0 OBJ File: 'alphabet.blend'
# www.blender.org
mtllib 72.mtl
v 0.187952 0.004598 0.000000
v 0.187952 0.536958 0.000000
v 0.086307 0.004598 0.000000
v 0.187952 0.004598 0.029156
v 0.086307 0.318673 0.029156
v 0.187952 0.536958 0.029156
v 0.086307 0.235311 0.029156
v 0.086307 0.004598 0.029156
v -0.064333 0.235311 0.029156
v 0.086307 0.235311 0.000000
v -0.064333 0.235311 0.000000
v -0.064333 0.004598 0.000000
v -0.166344 0.004598 0.000000
v -0.064333 0.004598 0.029156
v -0.166344 0.004598 0.029156
v -0.166344 0.536958 0.029156
v -0.064333 0.536958 0.029156
v -0.064333 0.318673 0.029156
v -0.064333 0.318673 0.000000
v -0.064333 0.536958 0.000000
v 0.086307 0.318673 0.000000
v 0.086307 0.536958 0.000000
v 0.086307 0.536958 0.029156
v -0.166344 0.536958 0.000000
vt 0.000000 0.000000
vt 1.000000 0.000000
vt 1.000000 0.000000
vt 0.000000 0.000000
vt 0.090909 0.000000
vt 0.090909 0.000000
vt 0.181818 0.000000
vt 0.818182 0.000000
vt 0.181818 0.000000
vt 0.272727 0.000000
vt 0.272727 0.000000
vt 0.363636 0.000000
vt 0.363636 0.000000
vt 0.454545 0.000000
vt 0.454545 0.000000
vt 0.545455 0.000000
vt 0.545455 0.000000
vt 0.636364 0.000000
vt 0.727273 0.000000
vt 0.727273 0.000000
vt 0.636364 0.000000
vt 0.818182 0.000000
vt 0.909091 0.000000
vt 0.909091 0.000000
vn 1.0000 0.0000 0.0000
vn 0.0000 -1.0000 0.0000
vn 0.0000 0.0000 1.0000
vn -1.0000 0.0000 0.0000
vn 0.0000 1.0000 0.0000
usemtl None
s off
f 1/1/1 2/2/1 6/3/1 4/4/1
f 3/5/2 1/1/2 4/4/2 8/6/2
f 7/7/3 4/4/3 5/8/3
f 5/8/3 4/4/3 6/3/3
f 8/6/3 4/4/3 7/7/3
f 10/9/4 3/5/4 8/6/4 7/7/4
f 11/10/2 10/9/2 7/7/2 9/11/2
f 9/11/3 7/7/3 5/8/3
f 12/12/1 11/10/1 9/11/1 14/13/1
f 13/14/2 12/12/2 14/13/2 15/15/2
f 15/15/3 14/13/3 9/11/3
f 24/16/4 13/14/4 15/15/4 16/17/4
f 15/15/3 17/18/3 16/17/3
f 15/15/3 18/19/3 17/18/3
f 15/15/3 9/11/3 18/19/3
f 19/20/1 20/21/1 17/18/1 18/19/1
f 9/11/3 5/8/3 18/19/3
f 21/22/5 19/20/5 18/19/5 5/8/5
f 22/23/4 21/22/4 5/8/4 23/24/4
f 2/2/5 22/23/5 23/24/5 6/3/5
f 5/8/3 6/3/3 23/24/3
f 20/21/5 24/16/5 16/17/5 17/18/5
