# Blender v3.2.0 OBJ File: 'alphabet.blend'
# www.blender.org
mtllib 97.mtl
v 0.080245 0.022237 3.708828
v 0.073984 0.041386 3.708828
v 0.180931 0.033810 3.708828
v 0.080245 0.022237 3.737984
v 0.073984 0.041386 3.737984
v 0.180931 0.033810 3.737984
v 0.172199 0.065335 3.737984
v -0.165001 0.083173 3.737984
v 0.169518 0.089825 3.737984
v -0.150320 0.059850 3.737984
v 0.172199 0.065335 3.708828
v 0.169518 0.089825 3.708828
v 0.168847 0.109204 3.708828
v 0.168731 0.289792 3.708828
v 0.168847 0.109204 3.737984
v 0.067174 0.261418 3.737984
v 0.168731 0.289792 3.737984
v 0.067174 0.200719 3.737984
v 0.059862 0.122563 3.737984
v 0.033221 0.102315 3.737984
v 0.015237 0.095311 3.737984
v 0.033221 0.102315 3.708828
v 0.059862 0.122563 3.708828
v 0.015237 0.095311 3.708828
v -0.003042 0.091664 3.708828
v -0.033314 0.092534 3.708828
v -0.003042 0.091664 3.737984
v -0.033314 0.092534 3.737984
v -0.053926 0.100423 3.737984
v -0.171756 0.101979 3.737984
v -0.174955 0.122121 3.737984
v -0.067175 0.114354 3.737984
v -0.053926 0.100423 3.708828
v -0.067175 0.114354 3.708828
v -0.073493 0.135197 3.708828
v -0.071852 0.153668 3.708828
v -0.073493 0.135197 3.737984
v -0.174915 0.140744 3.737984
v -0.071852 0.153668 3.737984
v -0.063257 0.172620 3.737984
v -0.163584 0.185956 3.737984
v -0.047063 0.187245 3.737984
v -0.172325 0.160008 3.737984
v -0.063257 0.172620 3.708828
v -0.047063 0.187245 3.708828
v -0.028090 0.195363 3.708828
v -0.010108 0.199170 3.708828
v -0.028090 0.195363 3.737984
v -0.010108 0.199170 3.737984
v 0.011342 0.200688 3.737984
v 0.011342 0.200688 3.708828
v 0.067174 0.200719 3.708828
v -0.172325 0.160008 3.708828
v -0.163584 0.185956 3.708828
v -0.174915 0.140744 3.708828
v -0.174955 0.122121 3.708828
v -0.171756 0.101979 3.708828
v -0.165001 0.083173 3.708828
v -0.150320 0.059850 3.708828
v -0.133386 0.043133 3.708828
v -0.112728 0.029721 3.708828
v -0.133386 0.043133 3.737984
v 0.041899 0.033124 3.737984
v -0.112728 0.029721 3.737984
v 0.015540 0.020818 3.737984
v -0.088520 0.019810 3.737984
v -0.004995 0.015340 3.737984
v -0.070756 0.015416 3.737984
v -0.088520 0.019810 3.708828
v -0.070756 0.015416 3.708828
v -0.042054 0.012486 3.708828
v -0.004995 0.015340 3.708828
v -0.042054 0.012486 3.737984
v 0.015540 0.020818 3.708828
v 0.041899 0.033124 3.708828
v -0.149016 0.208363 3.708828
v -0.136067 0.221333 3.708828
v -0.149016 0.208363 3.737984
v -0.136067 0.221333 3.737984
v -0.120533 0.232693 3.737984
v -0.102444 0.242184 3.737984
v -0.120533 0.232693 3.708828
v -0.102444 0.242184 3.708828
v -0.070532 0.252873 3.708828
v -0.046070 0.257619 3.708828
v -0.070532 0.252873 3.737984
v -0.046070 0.257619 3.737984
v -0.019059 0.260472 3.737984
v 0.010501 0.261418 3.737984
v -0.019059 0.260472 3.708828
v 0.010501 0.261418 3.708828
v 0.067174 0.261418 3.708828
v 0.066656 0.293996 3.708828
v 0.054225 0.324094 3.708828
v 0.066656 0.293996 3.737984
v 0.054225 0.324094 3.737984
v 0.164465 0.321400 3.737984
v 0.156022 0.344594 3.737984
v 0.164465 0.321400 3.708828
v 0.156022 0.344594 3.708828
v 0.140757 0.368504 3.708828
v 0.120556 0.387921 3.708828
v 0.140757 0.368504 3.737984
v -0.135893 0.373280 3.737984
v 0.120556 0.387921 3.737984
v -0.155312 0.345509 3.737984
v -0.019709 0.345776 3.737984
v -0.042378 0.339108 3.737984
v -0.164528 0.318196 3.737984
v -0.155312 0.345509 3.708828
v -0.135893 0.373280 3.708828
v -0.164528 0.318196 3.708828
v -0.166464 0.297612 3.708828
v -0.064422 0.304791 3.708828
v -0.166464 0.297612 3.737984
v -0.064422 0.304791 3.737984
v -0.058481 0.323369 3.737984
v -0.058481 0.323369 3.708828
v -0.042378 0.339108 3.708828
v -0.019709 0.345776 3.708828
v 0.000515 0.346486 3.708828
v 0.021173 0.343716 3.708828
v 0.000515 0.346486 3.737984
v 0.021173 0.343716 3.737984
v 0.038175 0.337247 3.737984
v 0.038175 0.337247 3.708828
v -0.111482 0.393513 3.708828
v -0.094582 0.402989 3.708828
v -0.111482 0.393513 3.737984
v -0.094582 0.402989 3.737984
v 0.095830 0.403004 3.737984
v -0.070486 0.412602 3.737984
v 0.077061 0.410725 3.737984
v 0.051235 0.417714 3.737984
v 0.077061 0.410725 3.708828
v 0.051235 0.417714 3.708828
v 0.095830 0.403004 3.708828
v 0.023603 0.421681 3.708828
v 0.000264 0.422658 3.708828
v 0.023603 0.421681 3.737984
v -0.019103 0.422032 3.737984
v 0.000264 0.422658 3.737984
v -0.037351 0.420148 3.737984
v -0.037351 0.420148 3.708828
v -0.019103 0.422032 3.708828
v -0.070486 0.412602 3.708828
vt 0.009112 0.000000
vt 0.006834 0.000000
vt 0.006834 0.000000
vt 0.009112 0.000000
vt 0.722096 0.000000
vt 0.722096 0.000000
vt 0.047836 0.000000
vt 0.701595 0.000000
vt 0.699317 0.000000
vt 0.701595 0.000000
vt 0.699317 0.000000
vt 0.234624 0.000000
vt 0.687927 0.000000
vt 0.236902 0.000000
vt 0.239180 0.000000
vt 0.685649 0.000000
vt 0.687927 0.000000
vt 0.685649 0.000000
vt 0.227790 0.000000
vt 0.054670 0.000000
vt 0.694761 0.000000
vt 0.669704 0.000000
vt 0.667426 0.000000
vt 0.667426 0.000000
vt 0.669704 0.000000
vt 0.665148 0.000000
vt 0.662870 0.000000
vt 0.662870 0.000000
vt 0.665148 0.000000
vt 0.835991 0.000000
vt 0.330296 0.000000
vt 0.833713 0.000000
vt 0.794989 0.000000
vt 0.797267 0.000000
vt 0.788155 0.000000
vt 0.797267 0.000000
vt 0.794989 0.000000
vt 0.772210 0.000000
vt 0.671982 0.000000
vt 0.774487 0.000000
vt 0.774487 0.000000
vt 0.772210 0.000000
vt 0.753986 0.000000
vt 0.751708 0.000000
vt 0.751708 0.000000
vt 0.753986 0.000000
vt 1.000000 0.000000
vt 0.997722 0.000000
vt 0.997722 0.000000
vt 1.000000 0.000000
vt 0.250569 0.000000
vt 0.676538 0.000000
vt 0.724374 0.000000
vt 0.674260 0.000000
vt 0.993166 0.000000
vt 0.990888 0.000000
vt 0.993166 0.000000
vt 0.990888 0.000000
vt 0.255125 0.000000
vt 0.979499 0.000000
vt 0.257403 0.000000
vt 0.974943 0.000000
vt 0.259681 0.000000
vt 0.264237 0.000000
vt 0.968109 0.000000
vt 0.965831 0.000000
vt 0.968109 0.000000
vt 0.965831 0.000000
vt 0.963554 0.000000
vt 0.961276 0.000000
vt 0.961276 0.000000
vt 0.963554 0.000000
vt 0.933941 0.000000
vt 0.931663 0.000000
vt 0.931663 0.000000
vt 0.933941 0.000000
vt 0.273349 0.000000
vt 0.947608 0.000000
vt 0.275626 0.000000
vt 0.277904 0.000000
vt 0.266515 0.000000
vt 0.929385 0.000000
vt 0.927107 0.000000
vt 0.929385 0.000000
vt 0.927107 0.000000
vt 0.282460 0.000000
vt 0.902050 0.000000
vt 0.284738 0.000000
vt 0.287016 0.000000
vt 0.890661 0.000000
vt 0.888383 0.000000
vt 0.890661 0.000000
vt 0.888383 0.000000
vt 0.924829 0.000000
vt 0.280182 0.000000
vt 0.870159 0.000000
vt 0.867882 0.000000
vt 0.867882 0.000000
vt 0.870159 0.000000
vt 0.865604 0.000000
vt 0.865604 0.000000
vt 0.289294 0.000000
vt 0.842825 0.000000
vt 0.840547 0.000000
vt 0.291572 0.000000
vt 0.842825 0.000000
vt 0.840547 0.000000
vt 0.838269 0.000000
vt 0.838269 0.000000
vt 0.835991 0.000000
vt 0.833713 0.000000
vt 0.284738 0.000000
vt 0.282460 0.000000
vt 0.280182 0.000000
vt 0.277904 0.000000
vt 0.275626 0.000000
vt 0.273349 0.000000
vt 0.259681 0.000000
vt 0.257403 0.000000
vt 0.255125 0.000000
vt 0.236902 0.000000
vt 0.234624 0.000000
vt 0.220957 0.000000
vt 0.218679 0.000000
vt 0.218679 0.000000
vt 0.220957 0.000000
vt 0.207289 0.000000
vt 0.205011 0.000000
vt 0.205011 0.000000
vt 0.207289 0.000000
vt 0.068337 0.000000
vt 0.216401 0.000000
vt 0.077449 0.000000
vt 0.075171 0.000000
vt 0.093394 0.000000
vt 0.200456 0.000000
vt 0.104784 0.000000
vt 0.102506 0.000000
vt 0.198178 0.000000
vt 0.200456 0.000000
vt 0.198178 0.000000
vt 0.189066 0.000000
vt 0.125285 0.000000
vt 0.123007 0.000000
vt 0.186788 0.000000
vt 0.189066 0.000000
vt 0.186788 0.000000
vt 0.173121 0.000000
vt 0.170843 0.000000
vt 0.170843 0.000000
vt 0.173121 0.000000
vt 0.150342 0.000000
vt 0.150342 0.000000
vt 0.125285 0.000000
vt 0.123007 0.000000
vt 0.104784 0.000000
vt 0.102506 0.000000
vt 0.077449 0.000000
vt 0.075171 0.000000
vt 0.293850 0.000000
vt 0.291572 0.000000
vt 0.293850 0.000000
vt 0.298405 0.000000
vt 0.296128 0.000000
vt 0.296128 0.000000
vt 0.298405 0.000000
vt 0.300683 0.000000
vt 0.300683 0.000000
vt 0.305239 0.000000
vt 0.307517 0.000000
vt 0.307517 0.000000
vt 0.305239 0.000000
vt 0.312073 0.000000
vt 0.309795 0.000000
vt 0.309795 0.000000
vt 0.312073 0.000000
vt 0.318907 0.000000
vt 0.316629 0.000000
vt 0.316629 0.000000
vt 0.318907 0.000000
vt 0.321185 0.000000
vt 0.321185 0.000000
vt 0.325740 0.000000
vt 0.328018 0.000000
vt 0.325740 0.000000
vt 0.328018 0.000000
vt 0.330296 0.000000
vt 0.332574 0.000000
vt 0.332574 0.000000
vt 0.346241 0.000000
vt 0.343964 0.000000
vt 0.343964 0.000000
vt 0.346241 0.000000
vt 0.341686 0.000000
vt 0.656036 0.000000
vt 0.653759 0.000000
vt 0.359909 0.000000
vt 0.644647 0.000000
vt 0.642369 0.000000
vt 0.644647 0.000000
vt 0.642369 0.000000
vt 0.656036 0.000000
vt 0.653759 0.000000
vt 0.630979 0.000000
vt 0.628702 0.000000
vt 0.628702 0.000000
vt 0.630979 0.000000
vt 0.615034 0.000000
vt 0.612756 0.000000
vt 0.612756 0.000000
vt 0.615034 0.000000
vt 0.480638 0.000000
vt 0.626424 0.000000
vt 0.482916 0.000000
vt 0.494305 0.000000
vt 0.478360 0.000000
vt 0.469248 0.000000
vt 0.405467 0.000000
vt 0.403189 0.000000
vt 0.471526 0.000000
vt 0.387244 0.000000
vt 0.633257 0.000000
vt 0.482916 0.000000
vt 0.480638 0.000000
vt 0.464692 0.000000
vt 0.410023 0.000000
vt 0.466970 0.000000
vt 0.466970 0.000000
vt 0.464692 0.000000
vt 0.455581 0.000000
vt 0.453303 0.000000
vt 0.453303 0.000000
vt 0.455581 0.000000
vt 0.428246 0.000000
vt 0.428246 0.000000
vt 0.457859 0.000000
vt 0.425968 0.000000
vt 0.423690 0.000000
vt 0.425968 0.000000
vt 0.423690 0.000000
vt 0.412301 0.000000
vt 0.412301 0.000000
vt 0.410023 0.000000
vt 0.405467 0.000000
vt 0.403189 0.000000
vt 0.387244 0.000000
vt 0.384966 0.000000
vt 0.384966 0.000000
vt 0.382688 0.000000
vt 0.382688 0.000000
vt 0.635535 0.000000
vt 0.366743 0.000000
vt 0.640091 0.000000
vt 0.369020 0.000000
vt 0.369020 0.000000
vt 0.366743 0.000000
vt 0.364465 0.000000
vt 0.364465 0.000000
vt 0.501139 0.000000
vt 0.498861 0.000000
vt 0.498861 0.000000
vt 0.501139 0.000000
vt 0.507973 0.000000
vt 0.505695 0.000000
vt 0.505695 0.000000
vt 0.507973 0.000000
vt 0.601367 0.000000
vt 0.608200 0.000000
vt 0.599089 0.000000
vt 0.514806 0.000000
vt 0.594533 0.000000
vt 0.592255 0.000000
vt 0.523918 0.000000
vt 0.521640 0.000000
vt 0.521640 0.000000
vt 0.523918 0.000000
vt 0.585421 0.000000
vt 0.526196 0.000000
vt 0.583144 0.000000
vt 0.580866 0.000000
vt 0.583144 0.000000
vt 0.580866 0.000000
vt 0.594533 0.000000
vt 0.592255 0.000000
vt 0.601367 0.000000
vt 0.599089 0.000000
vt 0.571754 0.000000
vt 0.569476 0.000000
vt 0.569476 0.000000
vt 0.571754 0.000000
vt 0.555809 0.000000
vt 0.553531 0.000000
vt 0.553531 0.000000
vt 0.555809 0.000000
vt 0.544419 0.000000
vt 0.562642 0.000000
vt 0.546697 0.000000
vt 0.551253 0.000000
vt 0.537585 0.000000
vt 0.546697 0.000000
vt 0.544419 0.000000
vt 0.533030 0.000000
vt 0.574032 0.000000
vt 0.535308 0.000000
vt 0.535308 0.000000
vt 0.533030 0.000000
vt 0.551253 0.000000
vn -0.9505 -0.3108 0.0000
vn 0.1142 -0.9935 0.0000
vn 0.0000 0.0000 1.0000
vn 0.9637 0.2669 0.0000
vn 0.9941 0.1088 0.0000
vn 0.9994 0.0346 0.0000
vn 1.0000 0.0006 0.0000
vn -0.6051 0.7961 0.0000
vn -0.3629 0.9318 0.0000
vn -0.1957 0.9807 0.0000
vn 0.0287 0.9996 0.0000
vn 0.3574 0.9339 0.0000
vn 0.7246 0.6891 0.0000
vn 0.9570 0.2901 0.0000
vn 0.9961 -0.0885 0.0000
vn 0.9107 -0.4130 0.0000
vn 0.6703 -0.7421 0.0000
vn 0.3934 -0.9194 0.0000
vn 0.2071 -0.9783 0.0000
vn 0.0000 0.0000 -1.0000
vn 0.0706 -0.9975 0.0000
vn 0.0005 -1.0000 0.0000
vn -0.9957 0.0932 0.0000
vn -0.9477 0.3192 0.0000
vn -0.9911 0.1332 0.0000
vn -1.0000 0.0021 0.0000
vn -0.9876 -0.1569 0.0000
vn -0.9411 -0.3380 0.0000
vn -0.8463 -0.5327 0.0000
vn -0.7025 -0.7117 0.0000
vn -0.5446 -0.8387 0.0000
vn -0.3789 -0.9255 0.0000
vn -0.2401 -0.9707 0.0000
vn -0.1015 -0.9948 0.0000
vn 0.0768 -0.9970 0.0000
vn 0.2577 -0.9662 0.0000
vn 0.4230 -0.9061 0.0000
vn 0.2494 -0.9684 0.0000
vn -0.8384 0.5451 0.0000
vn -0.7077 0.7065 0.0000
vn -0.5903 0.8072 0.0000
vn -0.4646 0.8855 0.0000
vn -0.3176 0.9482 0.0000
vn -0.1904 0.9817 0.0000
vn -0.1051 0.9945 0.0000
vn -0.0320 0.9995 0.0000
vn 0.0000 1.0000 0.0000
vn -0.9999 -0.0159 0.0000
vn -0.9243 -0.3818 0.0000
vn 0.9397 0.3421 0.0000
vn 0.9910 0.1337 0.0000
vn 0.8429 0.5381 0.0000
vn 0.6930 0.7210 0.0000
vn -0.8195 0.5731 0.0000
vn -0.9475 0.3197 0.0000
vn -0.9956 0.0936 0.0000
vn 0.0702 -0.9975 0.0000
vn 0.9525 -0.3046 0.0000
vn 0.6990 -0.7151 0.0000
vn 0.2822 -0.9594 0.0000
vn 0.0351 -0.9994 0.0000
vn -0.1329 -0.9911 0.0000
vn -0.3557 -0.9346 0.0000
vn -0.6339 -0.7734 0.0000
vn -0.6382 0.7699 0.0000
vn -0.4891 0.8723 0.0000
vn -0.3705 0.9288 0.0000
vn 0.2612 0.9653 0.0000
vn 0.3804 0.9248 0.0000
vn 0.5208 0.8537 0.0000
vn 0.1421 0.9898 0.0000
vn 0.0418 0.9991 0.0000
vn -0.1027 0.9947 0.0000
vn -0.2220 0.9750 0.0000
vn -0.0323 0.9995 0.0000
usemtl None
s off
f 2/1/1 1/2/1 4/3/1 5/4/1
f 1/2/2 3/5/2 6/6/2 4/3/2
f 4/3/3 6/6/3 5/4/3
f 5/7/3 6/8/3 7/9/3
f 3/10/4 11/11/4 7/9/4 6/8/4
f 10/12/3 7/13/3 8/14/3
f 8/15/3 7/13/3 9/16/3
f 11/17/5 12/18/5 9/16/5 7/13/5
f 10/19/3 5/20/3 7/21/3
f 12/22/6 13/23/6 15/24/6 9/25/6
f 13/26/7 14/27/7 17/28/7 15/29/7
f 18/30/3 15/29/3 16/31/3
f 16/31/3 15/29/3 17/28/3
f 19/32/3 15/29/3 18/30/3
f 20/33/3 15/24/3 19/34/3
f 20/35/3 9/25/3 15/24/3
f 23/36/8 22/37/8 20/33/8 19/34/8
f 21/38/3 9/39/3 20/40/3
f 22/41/9 24/42/9 21/38/9 20/40/9
f 24/43/10 25/44/10 27/45/10 21/46/10
f 25/47/11 26/48/11 28/49/11 27/50/11
f 8/51/3 9/52/3 27/53/3
f 27/45/3 9/54/3 21/46/3
f 8/51/3 27/50/3 28/49/3
f 8/51/3 28/55/3 29/56/3
f 26/57/12 33/58/12 29/56/12 28/55/12
f 8/59/3 29/60/3 30/61/3
f 30/61/3 29/62/3 31/63/3
f 31/64/3 29/65/3 32/66/3
f 33/67/13 34/68/13 32/66/13 29/65/13
f 34/69/14 35/70/14 37/71/14 32/72/14
f 35/73/15 36/74/15 39/75/15 37/76/15
f 31/77/3 37/78/3 38/79/3
f 38/80/3 37/76/3 39/75/3
f 31/81/3 32/72/3 37/71/3
f 38/80/3 39/82/3 40/83/3
f 36/84/16 44/85/16 40/83/16 39/82/16
f 43/86/3 40/87/3 41/88/3
f 41/89/3 40/90/3 42/91/3
f 44/92/17 45/93/17 42/91/17 40/90/17
f 38/80/3 40/94/3 43/95/3
f 45/96/18 46/97/18 48/98/18 42/99/18
f 46/97/19 47/100/19 49/101/19 48/98/19
f 41/102/3 42/99/3 48/98/3
f 41/102/3 48/98/3 49/101/3
f 49/103/20 50/104/20 41/105/20
f 47/106/21 51/107/21 50/104/21 49/103/21
f 50/108/20 18/30/20 41/105/20
f 51/109/22 52/110/22 18/30/22 50/108/22
f 52/110/23 23/111/23 19/32/23 18/30/23
f 54/112/24 53/113/24 43/86/24 41/88/24
f 53/114/25 55/115/25 38/80/25 43/95/25
f 55/116/26 56/117/26 31/77/26 38/79/26
f 56/118/27 57/119/27 30/61/27 31/63/27
f 57/119/28 58/120/28 8/59/28 30/61/28
f 58/121/29 59/122/29 10/12/29 8/14/29
f 59/123/30 60/124/30 62/125/30 10/126/30
f 60/127/31 61/128/31 64/129/31 62/130/31
f 62/125/3 5/131/3 10/126/3
f 62/132/3 63/133/3 5/134/3
f 64/129/3 63/135/3 62/130/3
f 64/136/3 65/137/3 63/138/3
f 66/139/3 65/137/3 64/136/3
f 61/140/32 69/141/32 66/139/32 64/136/32
f 66/142/3 67/143/3 65/144/3
f 68/145/3 67/143/3 66/142/3
f 69/146/33 70/147/33 68/145/33 66/142/33
f 70/148/34 71/149/34 73/150/34 68/151/34
f 71/149/35 72/152/35 67/153/35 73/150/35
f 73/150/3 67/153/3 68/151/3
f 72/154/36 74/155/36 65/144/36 67/143/36
f 74/156/37 75/157/37 63/138/37 65/137/37
f 75/158/38 2/159/38 5/134/38 63/133/38
f 76/160/39 54/161/39 41/105/39 78/162/39
f 77/163/40 76/164/40 78/165/40 79/166/40
f 41/105/3 18/30/3 78/162/3
f 78/165/3 18/30/3 79/166/3
f 79/166/3 18/30/3 80/167/3
f 82/168/41 77/163/41 79/166/41 80/167/41
f 80/169/3 18/30/3 81/170/3
f 83/171/42 82/172/42 80/169/42 81/170/42
f 84/173/43 83/174/43 81/175/43 86/176/43
f 85/177/44 84/178/44 86/179/44 87/180/44
f 81/175/3 18/30/3 86/176/3
f 86/179/3 18/30/3 87/180/3
f 87/180/3 18/30/3 88/181/3
f 90/182/45 85/177/45 87/180/45 88/181/45
f 88/183/3 18/30/3 16/31/3
f 91/184/46 90/185/46 88/183/46 89/186/46
f 88/183/3 16/31/3 89/186/3
f 92/187/47 91/184/47 89/186/47 16/31/47
f 93/188/48 92/187/48 16/31/48 95/189/48
f 94/190/49 93/191/49 95/192/49 96/193/49
f 16/31/3 17/28/3 95/189/3
f 95/194/3 17/195/3 97/196/3
f 95/192/3 97/196/3 96/193/3
f 96/197/3 97/198/3 98/199/3
f 99/200/50 100/201/50 98/199/50 97/198/50
f 14/202/51 99/203/51 97/196/51 17/195/51
f 100/204/52 101/205/52 103/206/52 98/207/52
f 101/208/53 102/209/53 105/210/53 103/211/53
f 106/212/3 103/213/3 104/214/3
f 104/215/3 103/211/3 105/210/3
f 106/216/3 98/207/3 103/206/3
f 106/217/3 108/218/3 107/219/3
f 106/220/20 107/221/20 98/222/20
f 111/223/54 110/224/54 106/212/54 104/214/54
f 109/225/3 108/226/3 106/227/3
f 110/228/55 112/229/55 109/225/55 106/227/55
f 112/230/56 113/231/56 115/232/56 109/233/56
f 113/231/57 114/234/57 116/235/57 115/232/57
f 115/232/3 116/235/3 109/233/3
f 109/236/3 116/237/3 117/238/3
f 114/239/58 118/240/58 117/238/58 116/237/58
f 109/225/3 117/241/3 108/226/3
f 118/242/59 119/243/59 108/226/59 117/241/59
f 119/244/60 120/245/60 107/219/60 108/218/60
f 120/246/61 121/247/61 123/248/61 107/221/61
f 121/247/62 122/249/62 124/250/62 123/248/62
f 124/250/3 98/251/3 123/248/3
f 123/248/20 98/251/20 107/221/20
f 125/252/3 98/253/3 124/254/3
f 122/255/63 126/256/63 125/252/63 124/254/63
f 96/257/3 98/253/3 125/252/3
f 126/256/64 94/258/64 96/257/64 125/252/64
f 127/259/65 111/260/65 104/261/65 129/262/65
f 128/263/66 127/264/66 129/265/66 130/266/66
f 129/265/3 105/267/3 130/266/3
f 104/261/3 105/268/3 129/262/3
f 130/266/3 105/267/3 131/269/3
f 130/270/3 131/271/3 133/272/3
f 146/273/67 128/274/67 130/275/67 132/276/67
f 130/275/3 133/277/3 132/276/3
f 132/278/3 133/279/3 134/280/3
f 135/281/68 136/282/68 134/280/68 133/279/68
f 137/283/69 135/284/69 133/272/69 131/271/69
f 102/285/70 137/286/70 131/269/70 105/267/70
f 136/287/71 138/288/71 140/289/71 134/290/71
f 138/291/72 139/292/72 142/293/72 140/294/72
f 143/295/3 140/296/3 141/297/3
f 141/298/3 140/294/3 142/293/3
f 143/299/3 134/290/3 140/289/3
f 145/300/73 144/301/73 143/295/73 141/297/73
f 132/302/3 134/303/3 143/304/3
f 144/305/74 146/306/74 132/302/74 143/304/74
f 139/292/75 145/307/75 141/298/75 142/293/75
