# Blender v3.2.0 OBJ File: ''
# www.blender.org
mtllib 121.mtl
v -0.008554 -0.000000 0.157066
v -0.098500 -0.000000 0.386688
v -0.098500 -0.029156 0.386688
v -0.008554 -0.029156 0.157066
v 0.003146 -0.000000 0.114654
v 0.003146 -0.029156 0.114654
v -0.042192 -0.029156 0.007896
v 0.108447 -0.000000 0.386688
v 0.108447 -0.029156 0.386688
v 0.220696 -0.029156 0.386688
v 0.015151 -0.029156 -0.078438
v 0.015151 0.000000 -0.078438
v 0.220696 -0.000000 0.386688
v -0.069777 -0.029156 -0.041428
v -0.080655 -0.029156 -0.058693
v -0.092771 -0.029156 -0.072632
v -0.108691 -0.029156 -0.083146
v 0.004673 -0.029156 -0.097786
v 0.004673 0.000000 -0.097786
v -0.006641 0.000000 -0.114876
v -0.006641 -0.029156 -0.114876
v -0.025847 0.000000 -0.135704
v -0.025847 -0.029156 -0.135704
v -0.150753 -0.029156 -0.164711
v -0.040593 -0.029156 -0.147049
v -0.040593 0.000000 -0.147049
v -0.057688 -0.029156 -0.156739
v -0.057688 0.000000 -0.156739
v -0.077293 0.000000 -0.164154
v -0.077293 -0.029156 -0.164154
v -0.104578 0.000000 -0.168427
v -0.104578 -0.029156 -0.168427
v -0.129149 -0.029156 -0.168068
v -0.129149 0.000000 -0.168068
v -0.150753 0.000000 -0.164711
v -0.149348 0.000000 -0.083893
v -0.149348 -0.029156 -0.083893
v -0.126882 0.000000 -0.084839
v -0.126882 -0.029156 -0.084839
v -0.108691 0.000000 -0.083146
v -0.092771 0.000000 -0.072632
v -0.080655 0.000000 -0.058693
v -0.069777 0.000000 -0.041428
v -0.042192 -0.000000 0.007896
v -0.209651 -0.000000 0.386688
v -0.209651 -0.029156 0.386688
vt 0.000000 0.000000
vt 1.000000 0.000000
vt 1.000000 0.000000
vt 0.000000 0.000000
vt 0.005682 0.000000
vt 0.005682 0.000000
vt 0.988636 0.000000
vt 0.011364 0.000000
vt 0.011364 0.000000
vt 0.017045 0.000000
vt 0.022727 0.000000
vt 0.022727 0.000000
vt 0.017045 0.000000
vt 0.982955 0.000000
vt 0.920455 0.000000
vt 0.926136 0.000000
vt 0.801136 0.000000
vt 0.034091 0.000000
vt 0.806818 0.000000
vt 0.795455 0.000000
vt 0.755682 0.000000
vt 0.056818 0.000000
vt 0.051136 0.000000
vt 0.056818 0.000000
vt 0.051136 0.000000
vt 0.119318 0.000000
vt 0.113636 0.000000
vt 0.113636 0.000000
vt 0.119318 0.000000
vt 0.153409 0.000000
vt 0.147727 0.000000
vt 0.147727 0.000000
vt 0.153409 0.000000
vt 0.568182 0.000000
vt 0.193182 0.000000
vt 0.187500 0.000000
vt 0.193182 0.000000
vt 0.187500 0.000000
vt 0.198864 0.000000
vt 0.198864 0.000000
vt 0.227273 0.000000
vt 0.221591 0.000000
vt 0.221591 0.000000
vt 0.227273 0.000000
vt 0.278409 0.000000
vt 0.272727 0.000000
vt 0.272727 0.000000
vt 0.278409 0.000000
vt 0.392045 0.000000
vt 0.386364 0.000000
vt 0.386364 0.000000
vt 0.392045 0.000000
vt 0.602273 0.000000
vt 0.568182 0.000000
vt 0.602273 0.000000
vt 0.607955 0.000000
vt 0.607955 0.000000
vt 0.744318 0.000000
vt 0.738636 0.000000
vt 0.738636 0.000000
vt 0.744318 0.000000
vt 0.062500 0.000000
vt 0.710227 0.000000
vt 0.801136 0.000000
vt 0.795455 0.000000
vt 0.806818 0.000000
vt 0.926136 0.000000
vt 0.920455 0.000000
vt 0.988636 0.000000
vt 0.982955 0.000000
vt 0.994318 0.000000
vt 0.994318 0.000000
vn 0.9311 0.0000 0.3647
vn 0.9640 -0.0000 0.2659
vn 0.0000 -1.0000 -0.0000
vn -0.9326 0.0000 0.3610
vn 0.9147 0.0000 -0.4042
vn 0.8793 0.0000 -0.4762
vn 0.8338 0.0000 -0.5520
vn 0.7352 0.0000 -0.6779
vn 0.6098 0.0000 -0.7926
vn 0.4931 0.0000 -0.8700
vn 0.3538 0.0000 -0.9353
vn 0.1547 0.0000 -0.9880
vn -0.0146 0.0000 -0.9999
vn -0.1535 0.0000 -0.9881
vn -0.9998 0.0000 0.0174
vn 0.0421 -0.0000 0.9991
vn -0.0927 -0.0000 0.9957
vn -0.5511 -0.0000 0.8344
vn -0.7547 0.0000 0.6560
vn -0.8461 -0.0000 0.5331
vn -0.8728 0.0000 0.4881
vn -0.9146 0.0000 -0.4043
vn 0.0000 0.0000 1.0000
usemtl None.003
s 1
f 1/1/1 2/2/1 3/3/1 4/4/1
f 5/5/2 1/1/2 4/4/2 6/6/2
f 7/7/3 6/6/3 4/4/3
f 7/7/3 4/4/3 3/3/3
f 8/8/4 5/5/4 6/6/4 9/9/4
f 6/6/3 10/10/3 9/9/3
f 6/6/3 11/11/3 10/10/3
f 7/7/3 11/11/3 6/6/3
f 12/12/5 13/13/5 10/10/5 11/11/5
f 14/14/3 11/11/3 7/7/3
f 15/15/3 11/11/3 14/16/3
f 16/17/3 11/18/3 15/19/3
f 17/20/3 11/18/3 16/17/3
f 17/21/3 18/22/3 11/23/3
f 19/24/6 12/25/6 11/23/6 18/22/6
f 20/26/7 19/27/7 18/28/7 21/29/7
f 22/30/8 20/31/8 21/32/8 23/33/8
f 24/34/3 23/33/3 21/32/3
f 24/34/3 21/29/3 18/28/3
f 24/34/3 25/35/3 23/36/3
f 26/37/9 22/38/9 23/36/9 25/35/9
f 24/34/3 27/39/3 25/35/3
f 28/40/10 26/37/10 25/35/10 27/39/10
f 29/41/11 28/42/11 27/43/11 30/44/11
f 31/45/12 29/46/12 30/47/12 32/48/12
f 24/49/3 32/48/3 30/47/3
f 24/34/3 30/44/3 27/43/3
f 33/50/3 32/48/3 24/49/3
f 34/51/13 31/45/13 32/48/13 33/50/13
f 35/52/14 34/51/14 33/50/14 24/49/14
f 36/53/15 35/54/15 24/34/15 37/55/15
f 38/56/16 36/53/16 37/55/16 39/57/16
f 24/34/3 39/57/3 37/55/3
f 40/58/17 38/59/17 39/60/17 17/61/17
f 39/60/3 18/22/3 17/61/3
f 24/34/3 18/62/3 39/63/3
f 41/64/18 40/65/18 17/20/18 16/17/18
f 42/66/19 41/64/19 16/17/19 15/19/19
f 43/67/20 42/68/20 15/15/20 14/16/20
f 44/69/21 43/70/21 14/14/21 7/7/21
f 45/71/22 44/69/22 7/7/22 46/72/22
f 2/2/23 45/71/23 46/72/23 3/3/23
f 7/7/3 3/3/3 46/72/3
f 13/13/23 8/8/23 9/9/23 10/10/23
